<svg xmlns="http://www.w3.org/2000/svg" xmlns:xlink="http://www.w3.org/1999/xlink" width="512" zoomAndPan="magnify" viewBox="0 0 384 383.999986" height="512" preserveAspectRatio="xMidYMid meet" version="1.0"><defs><clipPath id="238ba2a899"><path d="M 28 149 L 184 149 L 184 305 L 28 305 Z M 28 149 " clip-rule="nonzero"/></clipPath><clipPath id="ceae6139d2"><path d="M 357.230469 296.941406 L 33.378906 306.683594 L 26.769531 87.03125 L 350.621094 77.289062 Z M 357.230469 296.941406 " clip-rule="nonzero"/></clipPath><clipPath id="ba48a4052c"><path d="M 357.230469 296.941406 L 33.378906 306.683594 L 26.769531 87.03125 L 350.621094 77.289062 Z M 357.230469 296.941406 " clip-rule="nonzero"/></clipPath><clipPath id="22953bdc78"><path d="M 150 82 L 353 82 L 353 301 L 150 301 Z M 150 82 " clip-rule="nonzero"/></clipPath><clipPath id="e220990403"><path d="M 357.230469 296.941406 L 33.378906 306.683594 L 26.769531 87.03125 L 350.621094 77.289062 Z M 357.230469 296.941406 " clip-rule="nonzero"/></clipPath><clipPath id="b0679d1d06"><path d="M 357.230469 296.941406 L 33.378906 306.683594 L 26.769531 87.03125 L 350.621094 77.289062 Z M 357.230469 296.941406 " clip-rule="nonzero"/></clipPath><clipPath id="a43c3d6b13"><path d="M 204 82.132812 L 357.230469 82.132812 L 357.230469 238 L 204 238 Z M 204 82.132812 " clip-rule="nonzero"/></clipPath><clipPath id="921aaa4442"><path d="M 33.230469 82.132812 L 235 82.132812 L 235 301.882812 L 33.230469 301.882812 Z M 33.230469 82.132812 " clip-rule="nonzero"/></clipPath></defs><rect x="-38.4" width="460.8" fill="#ffffff" y="-38.399999" height="460.799983" fill-opacity="1"/><rect x="-38.4" width="460.8" fill="#011559" y="-38.399999" height="460.799983" fill-opacity="1"/><g clip-path="url(#238ba2a899)"><g clip-path="url(#ceae6139d2)"><g clip-path="url(#ba48a4052c)"><path fill="#ffffff" d="M 159.421875 188.230469 L 128.953125 261.347656 L 74.628906 149.53125 L 28.691406 150.914062 L 103.625 304.421875 L 154.625 302.886719 L 183.519531 234.550781 Z M 159.421875 188.230469 " fill-opacity="1" fill-rule="evenodd"/></g></g></g><g clip-path="url(#22953bdc78)"><g clip-path="url(#e220990403)"><g clip-path="url(#b0679d1d06)"><path fill="#ffffff" d="M 239.074219 300.34375 L 290.074219 298.8125 L 352.542969 141.171875 L 305.707031 142.582031 L 260.652344 257.386719 L 170.707031 82.851562 L 150.980469 130.164062 Z M 239.074219 300.34375 " fill-opacity="1" fill-rule="evenodd"/></g></g></g><g clip-path="url(#a43c3d6b13)"><path fill="#47b5ff" d="M 227.679688 196.746094 L 260.332031 124.574219 L 311.273438 237.972656 L 357.230469 237.972656 L 286.945312 82.285156 L 235.925781 82.285156 L 204.984375 149.71875 Z M 227.679688 196.746094 " fill-opacity="1" fill-rule="evenodd"/></g><g clip-path="url(#921aaa4442)"><path fill="#47b5ff" d="M 151.433594 82.285156 L 100.414062 82.285156 L 33.230469 237.972656 L 80.085938 237.972656 L 128.578125 124.574219 L 213.230469 301.734375 L 234.375 255.035156 Z M 151.433594 82.285156 " fill-opacity="1" fill-rule="evenodd"/></g></svg>